<svg xmlns="http://www.w3.org/2000/svg" fill="none" viewBox="0 0 34 34" class="CallWidget__Phone-sc-1q0eupo-6 fwaCqX"><g filter="url(#filter0_ii_2886_52459)"><g clip-path="url(#clip0_2886_52459)"><rect width="34" height="34" fill="#37EB05" rx="17"></rect><path fill="#fff" d="M15.072 17.781c-1.883-1.883-1.984-3.227-1.26-3.952l1.079-1.122a.746.746 0 0 0-.01-1.045l-2.385-2.384a.746.746 0 0 0-1.055 0l-.602.602c-.328.327-.657.845-.845 1.268-.53 1.186.179 3.507.967 4.944.871 1.59 2.27 3.14 2.719 3.588.448.448 1.777 1.621 3.588 2.719 1.437.787 3.757 1.496 4.943.967.423-.19.941-.518 1.269-.846l.602-.602a.746.746 0 0 0 0-1.055l-2.384-2.384a.746.746 0 0 0-1.045-.01l-1.122 1.077c-.725.726-2.07.624-3.953-1.258l-.506-.507Z"></path><g filter="url(#filter1_f_2886_52459)"><ellipse cx="17.25" cy="4" fill="url(#paint0_linear_2886_52459)" fill-opacity="0.25" rx="27.75" ry="16"></ellipse></g></g><rect width="33.75" height="33.75" x="0.125" y="0.125" stroke="url(#paint1_linear_2886_52459)" stroke-width="0.25" rx="16.875"></rect></g></svg>