<svg xmlns="http://www.w3.org/2000/svg" fill="none" viewBox="0 0 148 32" class="CallWidget__Audio-sc-1q0eupo-5 EOgFU"><g clip-path="url(#clip0_2886_52426)"><path fill="url(#paint0_linear_2886_52426)" fill-rule="evenodd" d="M156.306-.755c.417 0 .755.338.755.755v32.47a.755.755 0 1 1-1.51 0V0c0-.417.338-.755.755-.755ZM11.326 1.133c.418 0 .756.338.756.755v28.694a.755.755 0 1 1-1.51 0V1.888c0-.417.338-.755.755-.755Zm-5.285 4.53a.755.755 0 0 0-1.51 0v21.143a.755.755 0 0 0 1.51 0V5.663ZM0 10.194a.755.755 0 0 0-1.51 0v12.082a.755.755 0 0 0 1.51 0V10.194Zm18.122-.755a.755.755 0 1 0-1.51 0V23.03a.755.755 0 0 0 1.51 0V9.439Zm5.286-4.53c.417 0 .755.337.755.754v21.143a.755.755 0 0 1-1.51 0V5.663c0-.417.338-.755.755-.755Zm6.796.754a.755.755 0 0 0-1.51 0v21.143a.755.755 0 1 0 1.51 0V5.663Zm5.286 2.643c.417 0 .755.338.755.755v14.347a.755.755 0 1 1-1.51 0V9.061c0-.417.338-.755.755-.755Zm6.796-6.418a.755.755 0 0 0-1.51 0v28.694a.755.755 0 0 0 1.51 0V1.888Zm5.285 1.51c.418 0 .756.338.756.755v24.163a.755.755 0 1 1-1.51 0V4.154c0-.417.337-.755.754-.755Zm6.796 2.265a.755.755 0 1 0-1.51 0v21.143a.755.755 0 0 0 1.51 0V5.663Zm5.286-2.265c.417 0 .755.338.755.755v24.163a.755.755 0 0 1-1.51 0V4.154c0-.417.338-.755.755-.755Zm6.796 6.796a.755.755 0 0 0-1.51 0v12.082a.755.755 0 1 0 1.51 0V10.194Zm5.286-2.643c.417 0 .755.338.755.755v15.857a.755.755 0 1 1-1.51 0V8.306c0-.417.338-.755.755-.755Zm6.796-2.643a.755.755 0 0 0-1.51 0v22.653a.755.755 0 0 0 1.51 0V4.908Zm5.285 3.776c.417 0 .755.338.755.755V23.03a.755.755 0 1 1-1.51 0V9.439c0-.417.338-.755.755-.755Zm6.796-2.265a.755.755 0 1 0-1.51 0V26.05a.755.755 0 0 0 1.51 0V6.42Zm5.286 1.132c.417 0 .755.338.755.755v15.857a.755.755 0 1 1-1.51 0V8.306c0-.417.338-.755.755-.755Zm6.796 3.776a.755.755 0 1 0-1.51 0v9.816a.755.755 0 1 0 1.51 0v-9.816Zm5.286-2.266c.417 0 .755.338.755.755v12.837a.755.755 0 1 1-1.511 0V9.817c0-.418.339-.756.756-.756Zm6.796 1.133a.756.756 0 0 0-1.511 0v12.082a.755.755 0 1 0 1.511 0V10.194Zm5.285-.755c.417 0 .755.338.755.755v12.082a.755.755 0 1 1-1.51 0V10.194c0-.417.338-.755.755-.755Zm6.796-1.888a.755.755 0 1 0-1.51 0V24.92a.755.755 0 1 0 1.51 0V7.55Zm5.286 1.888c.417 0 .755.338.755.755v12.082a.755.755 0 1 1-1.51 0V10.194c0-.417.338-.755.755-.755Zm6.796-3.776a.755.755 0 1 0-1.51 0v21.143a.755.755 0 1 0 1.51 0V5.663Zm5.285-2.265c.418 0 .756.338.756.755v24.163a.755.755 0 0 1-1.511 0V4.154c0-.417.338-.755.755-.755Zm6.796-1.133a.755.755 0 1 0-1.51 0v27.94a.755.755 0 1 0 1.51 0V2.264Zm12.082 3.02a.755.755 0 1 0-1.51 0v21.899a.755.755 0 1 0 1.51 0V5.286Zm5.286 1.134c.417 0 .755.338.755.755v18.122a.755.755 0 1 1-1.51 0V7.174c0-.417.338-.755.755-.755Zm6.796 2.642a.755.755 0 1 0-1.511 0v14.347a.756.756 0 0 0 1.511 0V9.061Z" clip-rule="evenodd"></path></g><defs><linearGradient id="paint0_linear_2886_52426" x1="-1.51" x2="108.057" y1="12.082" y2="-18.276" gradientUnits="userSpaceOnUse"><stop stop-color="#30E91D"></stop><stop offset="1" stop-color="#55D2FF"></stop></linearGradient><clipPath id="clip0_2886_52426"><path fill="#fff" d="M-8 0h164v32H-8z"></path></clipPath></defs></svg>